<svg xmlns="http://www.w3.org/2000/svg" width="24" height="24">
  <path fill="#4285F4" d="M23.5 12.3c0-.8-.1-1.6-.2-2.3H12v4.4h6.5c-.3 1.5-1.2 2.8-2.6 3.7v3h4.2c2.4-2.2 3.8-5.4 3.8-8.8z"/>
  <path fill="#34A853" d="M12 24c3.2 0 5.9-1.1 7.9-3l-4.2-3c-1.1.7-2.5 1.1-3.7 1.1-2.9 0-5.4-2-6.3-4.7H1.3v3c2 4 6.1 6.6 10.7 6.6z"/>
  <path fill="#FBBC05" d="M5.7 14.4c-.3-1-.5-2-.5-3s.2-2 .5-3V5.4H1.3C.5 7.1 0 9 0 11s.5 3.9 1.3 5.6l4.4-3.2z"/>
  <path fill="#EA4335" d="M12 4.8c1.7 0 3.2.6 4.4 1.7l3.3-3.3C17.9 1.1 15.2 0 12 0 7.4 0 3.3 2.6 1.3 6.4l4.4 3c.9-2.7 3.4-4.6 6.3-4.6z"/>
</svg>
